<?xml version="1.0" standalone="no"?>
<!DOCTYPE svg PUBLIC "-//W3C//DTD SVG 20010904//EN"
 "http://www.w3.org/TR/2001/REC-SVG-20010904/DTD/svg10.dtd">
<svg version="1.0" xmlns="http://www.w3.org/2000/svg"
 width="512.000000pt" height="512.000000pt" viewBox="0 0 512.000000 512.000000"
 preserveAspectRatio="xMidYMid meet">
<metadata>
Created by potrace 1.14, written by Peter Selinger 2001-2017
</metadata>
<g transform="translate(0.000000,512.000000) scale(0.100000,-0.100000)"
fill="#000000" stroke="none">
<path d="M2514 5089 c-22 -17 -106 -94 -189 -172 -531 -503 -1313 -1290 -1630
-1642 -190 -211 -260 -293 -305 -358 -33 -46 -33 -48 -18 -80 42 -87 424 -480
702 -722 38 -33 76 -67 85 -76 15 -15 170 -153 240 -215 18 -16 45 -40 60 -54
15 -14 65 -59 111 -100 47 -41 101 -91 122 -110 l37 -35 5 -480 c2 -264 6
-491 9 -505 3 -14 8 -44 11 -66 18 -144 58 -228 156 -326 102 -102 137 -116
159 -60 21 55 23 113 27 802 l4 706 -642 642 -642 642 864 865 c476 476 870
865 875 865 6 0 399 -390 874 -866 l864 -865 -641 -640 -640 -640 3 -707 c2
-389 6 -724 10 -746 3 -21 13 -52 21 -68 12 -23 19 -28 37 -22 54 17 172 134
210 211 74 146 85 255 87 903 l2 365 111 98 c62 54 130 114 152 133 22 20 114
102 205 182 91 81 185 165 209 187 296 268 638 619 680 698 13 24 12 30 -14
68 -45 64 -196 238 -356 410 -19 20 -79 85 -134 144 -55 60 -116 125 -135 145
-19 20 -123 129 -230 241 -272 284 -981 994 -1120 1120 -111 101 -181 159
-192 159 -3 0 -23 -14 -44 -31z"/>
<path d="M2465 3923 c-49 -5 -136 -34 -199 -66 -129 -64 -198 -167 -370 -552
-60 -132 -119 -299 -327 -909 -24 -69 -40 -43 141 -225 312 -313 385 -357 475
-285 119 94 179 115 345 120 104 3 137 1 200 -17 78 -21 127 -46 170 -85 30
-28 88 -53 113 -49 28 5 99 44 142 80 22 18 122 114 223 214 l182 182 -96 287
c-53 158 -112 330 -131 382 -97 267 -248 600 -321 707 -67 98 -163 165 -289
199 -55 15 -193 24 -258 17z"/>
<path d="M1091 1817 c-5 -12 -23 -47 -41 -77 -126 -214 -186 -384 -195 -550
-7 -135 83 -243 266 -318 64 -26 174 -48 229 -46 98 5 155 26 189 70 87 111
33 403 -115 625 -43 64 -296 319 -316 319 -5 0 -12 -10 -17 -23z"/>
<path d="M3923 1778 c-165 -153 -256 -273 -319 -417 -88 -203 -101 -402 -31
-478 57 -63 235 -74 381 -23 153 52 268 147 293 241 37 138 -144 664 -248 719
-16 9 -28 3 -76 -42z"/>
<path d="M2420 1094 c-118 -18 -163 -29 -184 -45 -55 -43 -3 -113 114 -151
100 -32 289 -34 392 -4 191 56 217 151 51 187 -49 10 -326 20 -373 13z"/>
</g>
</svg>
